<svg width="15" height="14" viewBox="0 0 15 14" fill="none" xmlns="http://www.w3.org/2000/svg">
<path d="M4.5 1.52094L5.01885 0.666069L4.5 0.351161L3.98115 0.666069L4.5 1.52094ZM7.5 3.34174L6.98115 4.19661L7.5 4.51152L8.01885 4.19661L7.5 3.34174ZM1.5 3.34174L0.981151 2.48688L0.5 2.77891V3.34174H1.5ZM1.5 7.24348H0.5V7.705L0.851203 8.00444L1.5 7.24348ZM7.5 12.3591L6.8512 13.12L7.5 13.6732L8.1488 13.12L7.5 12.3591ZM13.5 7.24348L14.1488 8.00444L14.5 7.705V7.24348H13.5ZM13.5 3.34174H14.5V2.77891L14.0188 2.48688L13.5 3.34174ZM10.5 1.52094L11.0189 0.666069L10.5 0.351161L9.98115 0.666069L10.5 1.52094ZM3.98115 2.3758L6.98115 4.19661L8.01885 2.48688L5.01885 0.666069L3.98115 2.3758ZM2.01885 4.19661L5.01885 2.3758L3.98115 0.666069L0.981151 2.48688L2.01885 4.19661ZM2.5 7.24348V3.34174H0.5V7.24348H2.5ZM8.1488 11.5981L2.1488 6.48252L0.851203 8.00444L6.8512 13.12L8.1488 11.5981ZM8.1488 13.12L14.1488 8.00444L12.8512 6.48252L6.8512 11.5981L8.1488 13.12ZM14.5 7.24348V3.34174H12.5V7.24348H14.5ZM14.0188 2.48688L11.0189 0.666069L9.98115 2.3758L12.9812 4.19661L14.0188 2.48688ZM9.98115 0.666069L6.98115 2.48688L8.01885 4.19661L11.0189 2.3758L9.98115 0.666069Z" fill="white"/>
</svg>
